# xmcd
#
# Track frame offsets: 
#        150
#        9537
#        19035
#        30717
#        40779
#        50822
#        61506
#        70507
#        80488
#        90571
#        100673
#        115031
#        130178
#        141356
#        153405
#        164751
#        173982
#        184019
#        193561
#        205152
#        217053
#        225993
#        236217
#        246900
#        256482
#        266328
#        277142
#        287591
#        297989
#        310500
#        321961
#
# Disc length: 4427 seconds
#
# Revision: 2
# Processed by: cddbd v1.5.2PL0 Copyright (c) Steve Scherf et al.
# Submitted via: ExactAudioCopy v0.99pb4
#
DISCID=bc11491f
DTITLE=The Stanley Brothers - The Early Starday-King Years 1958-61 (Di
DTITLE=sc 4)
DYEAR=2003
DGENRE=Bluegrass
TTITLE0=Let Me Love You One More Time
TTITLE1=Little Bennie
TTITLE2=Old Love Letters
TTITLE3=Daybreak In Dixie (undubbed version)
TTITLE4=Daybreak In Dixie (overdubbed version)
TTITLE5=Wildwood Flower
TTITLE6=Let Me Rest
TTITLE7=Are You Tired of Me My Darling
TTITLE8=Finger Popping Time (undubbed version)
TTITLE9=Finger Popping Time (overdubbed version)
TTITLE10=Rank Stranger (previously unreleased)
TTITLE11=Come All Ye Tenderhearted
TTITLE12=The Window Up Above
TTITLE13=Lover's Quarrel
TTITLE14=The Story Of The Lawson Family
TTITLE15=Hey, Hey, Hey
TTITLE16=The Wild Side Of Life
TTITLE17=Jenny Lynnn
TTITLE18=What About You
TTITLE19=Little Willie
TTITLE20=Big Tilda
TTITLE21=Wild Bill Jones
TTITLE22=Your Still To Blame
TTITLE23=I'll Take The Blame
TTITLE24=I'll Just Go Away
TTITLE25=Steel Guitar Rag (previously unissued)
TTITLE26=I'd Worship You
TTITLE27=Just Dreamin'
TTITLE28=The Drunken Driver
TTITLE29=Little Joe
TTITLE30=Handsome Molly
EXTD=
EXTT0=
EXTT1=
EXTT2=
EXTT3=
EXTT4=
EXTT5=
EXTT6=
EXTT7=
EXTT8=
EXTT9=
EXTT10=
EXTT11=
EXTT12=
EXTT13=
EXTT14=
EXTT15=
EXTT16=
EXTT17=
EXTT18=
EXTT19=
EXTT20=
EXTT21=
EXTT22=
EXTT23=
EXTT24=
EXTT25=
EXTT26=
EXTT27=
EXTT28=
EXTT29=
EXTT30=
PLAYORDER=
